<svg id="Label_Releases" data-name="Label Releases" xmlns="http://www.w3.org/2000/svg" xmlns:xlink="http://www.w3.org/1999/xlink" viewBox="0 0 460.86 144.24"><defs><style>.cls-1{fill:#fff;}.cls-2{fill:url(#linear-gradient);}.cls-3{fill:url(#linear-gradient-2);}</style><linearGradient id="linear-gradient" x1="30.39" y1="121.37" x2="169.81" y2="121.37" gradientUnits="userSpaceOnUse"><stop offset="0"/><stop offset="0.32" stop-color="#454243"/><stop offset="0.37" stop-color="#474445"/><stop offset="0.41" stop-color="#4f4d4e"/><stop offset="0.43" stop-color="#5d5b5b"/><stop offset="0.46" stop-color="#716e6f"/><stop offset="0.48" stop-color="#8a8889"/><stop offset="0.5" stop-color="#a8a7a7"/><stop offset="0.5" stop-color="#b7b6b6"/><stop offset="0.52" stop-color="#a6a5a5"/><stop offset="0.54" stop-color="#828080"/><stop offset="0.57" stop-color="#646162"/><stop offset="0.6" stop-color="#4c494a"/><stop offset="0.63" stop-color="#3c3839"/><stop offset="0.66" stop-color="#322e2f"/><stop offset="0.7" stop-color="#2f2b2c"/><stop offset="0.83" stop-color="#2c2829"/><stop offset="0.93" stop-color="#221f20"/><stop offset="1" stop-color="#161415"/></linearGradient><linearGradient id="linear-gradient-2" x1="78.68" y1="121.37" x2="121.52" y2="121.37" gradientUnits="userSpaceOnUse"><stop offset="0" stop-color="#cc9e0a"/><stop offset="0.2" stop-color="#cea00a"/><stop offset="0.31" stop-color="#d7a709"/><stop offset="0.4" stop-color="#e5b408"/><stop offset="0.48" stop-color="#f8c506"/><stop offset="0.5" stop-color="#ffcb05"/><stop offset="0.6" stop-color="#eab807"/><stop offset="0.72" stop-color="#d9aa09"/><stop offset="0.84" stop-color="#cfa10a"/><stop offset="1" stop-color="#cc9e0a"/></linearGradient></defs><g id="Text"><g id="Black_Best_Rated" data-name="Black Best Rated"><path d="M211.07,54.17h7.87V91.81h23.55V99H211.07Z" transform="translate(-29.06 -48.16)"/><path d="M251.13,97a9.41,9.41,0,0,1-3.58-7.74v-.13a9.58,9.58,0,0,1,3.9-8.19q3.65-2.7,10.05-2.69a28.93,28.93,0,0,1,9.09,1.41v-.84q0-7.35-8.39-7.36a25.34,25.34,0,0,0-9.66,2.12l-2-6.08a30.46,30.46,0,0,1,12.73-2.76q7.56,0,11.2,3.78,3.66,3.52,3.65,10.43V99h-7.55V94.75a13.67,13.67,0,0,1-11,4.93A13.07,13.07,0,0,1,251.13,97Zm17-4.93a6.3,6.3,0,0,0,2.56-5.25v-2.3A20.92,20.92,0,0,0,263,83.17q-7.93,0-7.93,5.63v.13A4.55,4.55,0,0,0,257,92.7a7.71,7.71,0,0,0,4.67,1.35A10.18,10.18,0,0,0,268.15,92.06Z" transform="translate(-29.06 -48.16)"/><path d="M295.1,93.73V99h-7.75V52.25h7.75V70.81c3-4.22,6.86-6.33,11.52-6.33A14.75,14.75,0,0,1,317.43,69q4.86,4.88,4.87,13v.13q0,8.07-4.87,13a14.49,14.49,0,0,1-10.81,4.55A13.93,13.93,0,0,1,295.1,93.73ZM311.61,90a11,11,0,0,0,2.81-7.87V82a11,11,0,0,0-2.88-7.87,8.91,8.91,0,0,0-6.78-2.94,9.21,9.21,0,0,0-6.91,3,10.64,10.64,0,0,0-3,7.8v.13a10.66,10.66,0,0,0,3,7.81,9.21,9.21,0,0,0,6.91,3A9,9,0,0,0,311.61,90Z" transform="translate(-29.06 -48.16)"/><path d="M333.47,94.88a17,17,0,0,1-5-12.67v-.13a17.73,17.73,0,0,1,4.62-12.42A15.49,15.49,0,0,1,345,64.48a15,15,0,0,1,12.19,5.44q4,5,4,12.73,0,.33,0,.87c0,.36-.06.8-.1,1.31H336.25a10.54,10.54,0,0,0,3.33,6.34,9.52,9.52,0,0,0,6.4,2.24,12.76,12.76,0,0,0,9.15-4l4.54,4a17.08,17.08,0,0,1-13.82,6.33A16.84,16.84,0,0,1,333.47,94.88Zm20-15.17a10.57,10.57,0,0,0-2.55-6.34,7.69,7.69,0,0,0-6-2.56,7.9,7.9,0,0,0-5.87,2.5,10.67,10.67,0,0,0-2.87,6.4Z" transform="translate(-29.06 -48.16)"/><path d="M369.4,52.25h7.74V99H369.4Z" transform="translate(-29.06 -48.16)"/><path d="M211.07,131h20q8.39,0,12.93,4.48a13.19,13.19,0,0,1,3.71,9.66v.13q0,10.48-10.62,13.56l12.1,17H239.8l-11-15.61h-9.85v15.61h-7.87Zm19.39,22.15a10.48,10.48,0,0,0,6.72-2,6.66,6.66,0,0,0,2.49-5.42v-.13q0-7.38-9.28-7.39H218.94v15Z" transform="translate(-29.06 -48.16)"/><path d="M259,171.68A17,17,0,0,1,254,159v-.13a17.72,17.72,0,0,1,4.61-12.42,15.51,15.51,0,0,1,11.93-5.18q7.69,0,12.18,5.44,4.05,5,4,12.73,0,.33,0,.87c0,.36-.05.8-.09,1.31H261.75a10.54,10.54,0,0,0,3.33,6.34,9.53,9.53,0,0,0,6.4,2.24,12.76,12.76,0,0,0,9.15-4l4.55,4a17.09,17.09,0,0,1-13.83,6.33A16.81,16.81,0,0,1,259,171.68Zm20-15.17a10.69,10.69,0,0,0-2.55-6.34,7.7,7.7,0,0,0-6-2.56,7.88,7.88,0,0,0-5.86,2.5,10.67,10.67,0,0,0-2.87,6.4Z" transform="translate(-29.06 -48.16)"/><path d="M294.9,129.05h7.75v46.72H294.9Z" transform="translate(-29.06 -48.16)"/><path d="M314.34,171.68a17,17,0,0,1-5-12.67v-.13a17.73,17.73,0,0,1,4.62-12.42,15.51,15.51,0,0,1,11.93-5.18q7.69,0,12.18,5.44,4.05,5,4,12.73,0,.33,0,.87c0,.36-.05.8-.09,1.31H317.11a10.54,10.54,0,0,0,3.33,6.34,9.53,9.53,0,0,0,6.4,2.24,12.76,12.76,0,0,0,9.15-4l4.55,4a17.09,17.09,0,0,1-13.83,6.33A16.81,16.81,0,0,1,314.34,171.68Zm20-15.17a10.69,10.69,0,0,0-2.55-6.34,7.69,7.69,0,0,0-6-2.56,7.89,7.89,0,0,0-5.87,2.5,10.61,10.61,0,0,0-2.87,6.4Z" transform="translate(-29.06 -48.16)"/><path d="M351.16,173.79a9.41,9.41,0,0,1-3.58-7.74v-.13a9.58,9.58,0,0,1,3.9-8.19q3.64-2.7,10-2.69a28.93,28.93,0,0,1,9.09,1.41v-.84q0-7.35-8.39-7.36a25.34,25.34,0,0,0-9.66,2.12l-2.05-6.08a30.47,30.47,0,0,1,12.74-2.76q7.55,0,11.2,3.78,3.65,3.52,3.64,10.43v20h-7.55v-4.22a13.67,13.67,0,0,1-11,4.93A13.09,13.09,0,0,1,351.16,173.79Zm17-4.93a6.3,6.3,0,0,0,2.56-5.25v-2.3a20.92,20.92,0,0,0-7.68-1.34q-7.94,0-7.93,5.63v.13a4.55,4.55,0,0,0,1.92,3.77,7.73,7.73,0,0,0,4.67,1.35A10.18,10.18,0,0,0,368.18,168.86Z" transform="translate(-29.06 -48.16)"/><path d="M384.63,171.36l3.46-5.25c3.79,2.77,7.49,4.16,11.07,4.16s5.25-1.22,5.25-3.65v-.13q0-1.73-2.31-2.88a13.25,13.25,0,0,0-1.88-.76c-.88-.3-2-.66-3.36-1.09a22.08,22.08,0,0,1-7.17-3.07,8.05,8.05,0,0,1-3.39-6.85v-.13a9.28,9.28,0,0,1,3.52-7.55,12.85,12.85,0,0,1,8.51-2.75,22.15,22.15,0,0,1,12.41,3.84l-3.07,5.5q-5.31-3.19-9.53-3.2-4.74,0-4.74,3.33V151c0,1.06.77,2,2.3,2.88a16.31,16.31,0,0,0,2,.76l3.36,1.16q10.49,3.25,10.49,9.85v.13a9.61,9.61,0,0,1-3.65,8,14.11,14.11,0,0,1-8.89,2.62A22.56,22.56,0,0,1,384.63,171.36Z" transform="translate(-29.06 -48.16)"/><path d="M422.62,171.68a17,17,0,0,1-5-12.67v-.13a17.73,17.73,0,0,1,4.62-12.42,15.49,15.49,0,0,1,11.92-5.18q7.69,0,12.19,5.44,4,5,4,12.73,0,.33,0,.87c0,.36-.06.8-.1,1.31H425.4a10.54,10.54,0,0,0,3.33,6.34,9.53,9.53,0,0,0,6.4,2.24,12.76,12.76,0,0,0,9.15-4l4.54,4A17.07,17.07,0,0,1,435,176.54,16.84,16.84,0,0,1,422.62,171.68Zm20-15.17a10.63,10.63,0,0,0-2.56-6.34,7.68,7.68,0,0,0-6-2.56,7.92,7.92,0,0,0-5.87,2.5,10.6,10.6,0,0,0-2.86,6.4Z" transform="translate(-29.06 -48.16)"/><path d="M455.35,171.36l3.46-5.25q5.69,4.15,11.07,4.16t5.25-3.65v-.13q0-1.73-2.31-2.88a13,13,0,0,0-1.89-.76c-.87-.3-2-.66-3.36-1.09a22.11,22.11,0,0,1-7.16-3.07,8,8,0,0,1-3.4-6.85v-.13a9.31,9.31,0,0,1,3.52-7.55,12.9,12.9,0,0,1,8.52-2.75,22.15,22.15,0,0,1,12.41,3.84l-3.07,5.5q-5.31-3.19-9.54-3.2-4.73,0-4.73,3.33V151c0,1.06.77,2,2.3,2.88a16.72,16.72,0,0,0,1.95.76l3.36,1.16q10.5,3.25,10.5,9.85v.13a9.63,9.63,0,0,1-3.65,8,14.11,14.11,0,0,1-8.89,2.62A22.56,22.56,0,0,1,455.35,171.36Z" transform="translate(-29.06 -48.16)"/></g><path class="cls-1" d="M193.33,50.26h8.61V91.42H227.7v7.84H193.33Z" transform="translate(-29.06 -48.16)"/><path class="cls-1" d="M237.15,97.09a10.31,10.31,0,0,1-3.92-8.47v-.14a10.49,10.49,0,0,1,4.27-9q4-2.94,11-2.94a31.82,31.82,0,0,1,9.94,1.54v-.91q0-8-9.17-8a27.81,27.81,0,0,0-10.57,2.31l-2.24-6.65a33.55,33.55,0,0,1,13.93-3q8.26,0,12.25,4.13,4,3.86,4,11.41V99.26h-8.26V94.64a14.94,14.94,0,0,1-12,5.39A14.32,14.32,0,0,1,237.15,97.09Zm18.62-5.39a6.89,6.89,0,0,0,2.8-5.74V83.44a23,23,0,0,0-8.4-1.47q-8.67,0-8.68,6.16v.14a5,5,0,0,0,2.1,4.13,8.51,8.51,0,0,0,5.11,1.47A11.16,11.16,0,0,0,255.77,91.7Z" transform="translate(-29.06 -48.16)"/><path class="cls-1" d="M285.24,93.52v5.74h-8.47V48.16h8.47v20.3q5-6.93,12.6-6.93a16.15,16.15,0,0,1,11.83,5Q315,71.82,315,80.71v.14q0,8.82-5.32,14.21a15.83,15.83,0,0,1-11.83,5Q290.21,100,285.24,93.52Zm18.06-4.06a12,12,0,0,0,3.08-8.61v-.14a12.09,12.09,0,0,0-3.15-8.61,9.77,9.77,0,0,0-7.42-3.22,10.11,10.11,0,0,0-7.56,3.29A11.73,11.73,0,0,0,285,80.71v.14a11.71,11.71,0,0,0,3.22,8.54,10.07,10.07,0,0,0,7.56,3.29A9.81,9.81,0,0,0,303.3,89.46Z" transform="translate(-29.06 -48.16)"/><path class="cls-1" d="M327.22,94.78a18.55,18.55,0,0,1-5.51-13.86v-.14a19.44,19.44,0,0,1,5.05-13.58,16.94,16.94,0,0,1,13.05-5.67q8.42,0,13.32,6,4.42,5.46,4.42,13.93c0,.24,0,.55,0,1s-.06.87-.11,1.43H330.25a11.51,11.51,0,0,0,3.64,6.93,10.38,10.38,0,0,0,7,2.45,13.94,13.94,0,0,0,10-4.41l5,4.41a18.67,18.67,0,0,1-15.12,6.93A18.36,18.36,0,0,1,327.22,94.78Zm21.86-16.59a11.62,11.62,0,0,0-2.79-6.93,8.4,8.4,0,0,0-6.55-2.8,8.63,8.63,0,0,0-6.42,2.73,11.65,11.65,0,0,0-3.14,7Z" transform="translate(-29.06 -48.16)"/><path class="cls-1" d="M366.51,48.16H375v51.1h-8.47Z" transform="translate(-29.06 -48.16)"/><path class="cls-1" d="M193.33,134.26h21.84q9.18,0,14.14,4.9a14.43,14.43,0,0,1,4.06,10.57v.14q0,11.48-11.62,14.83L235,183.26H224.76l-12-17.08H201.94v17.08h-8.61Zm21.21,24.22a11.4,11.4,0,0,0,7.35-2.23,7.25,7.25,0,0,0,2.73-5.92v-.14q0-8.08-10.15-8.09H201.94v16.38Z" transform="translate(-29.06 -48.16)"/><path class="cls-1" d="M245.74,178.78a18.55,18.55,0,0,1-5.51-13.86v-.14a19.44,19.44,0,0,1,5.05-13.58,16.94,16.94,0,0,1,13-5.67q8.42,0,13.33,5.95,4.41,5.46,4.41,13.93c0,.24,0,.55,0,1s-.06.87-.11,1.43H248.77a11.56,11.56,0,0,0,3.64,6.93,10.4,10.4,0,0,0,7,2.45,13.94,13.94,0,0,0,10-4.41l5,4.41a18.65,18.65,0,0,1-15.12,6.93A18.36,18.36,0,0,1,245.74,178.78Zm21.86-16.59a11.62,11.62,0,0,0-2.79-6.93,8.39,8.39,0,0,0-6.55-2.8,8.63,8.63,0,0,0-6.42,2.73,11.71,11.71,0,0,0-3.14,7Z" transform="translate(-29.06 -48.16)"/><path class="cls-1" d="M285,132.16h8.47v51.1H285Z" transform="translate(-29.06 -48.16)"/><path class="cls-1" d="M306.29,178.78a18.55,18.55,0,0,1-5.51-13.86v-.14a19.44,19.44,0,0,1,5.05-13.58,16.94,16.94,0,0,1,13.05-5.67q8.42,0,13.32,5.95,4.43,5.46,4.42,13.93c0,.24,0,.55,0,1s-.06.87-.11,1.43H309.32a11.56,11.56,0,0,0,3.64,6.93,10.4,10.4,0,0,0,7,2.45,13.94,13.94,0,0,0,10-4.41l5,4.41a18.65,18.65,0,0,1-15.12,6.93A18.36,18.36,0,0,1,306.29,178.78Zm21.86-16.59a11.62,11.62,0,0,0-2.79-6.93,8.4,8.4,0,0,0-6.55-2.8,8.63,8.63,0,0,0-6.42,2.73,11.71,11.71,0,0,0-3.14,7Z" transform="translate(-29.06 -48.16)"/><path class="cls-1" d="M346.56,181.09a10.31,10.31,0,0,1-3.92-8.47v-.14a10.49,10.49,0,0,1,4.27-9q4-2.94,11-2.94a31.82,31.82,0,0,1,9.94,1.54v-.91q0-8-9.17-8.05a27.81,27.81,0,0,0-10.57,2.31l-2.24-6.65a33.55,33.55,0,0,1,13.93-3q8.26,0,12.25,4.13,4,3.85,4,11.41v21.91h-8.26v-4.62a14.94,14.94,0,0,1-12,5.39A14.32,14.32,0,0,1,346.56,181.09Zm18.62-5.39A6.89,6.89,0,0,0,368,170v-2.52a23,23,0,0,0-8.4-1.47q-8.67,0-8.68,6.16v.14a5,5,0,0,0,2.1,4.13,8.51,8.51,0,0,0,5.11,1.47A11.16,11.16,0,0,0,365.18,175.7Z" transform="translate(-29.06 -48.16)"/><path class="cls-1" d="M383.17,178.43l3.78-5.74q6.23,4.56,12.11,4.55t5.74-4v-.14q0-1.89-2.52-3.15a14.88,14.88,0,0,0-2.06-.84c-1-.32-2.19-.72-3.68-1.19a24.1,24.1,0,0,1-7.84-3.36,8.79,8.79,0,0,1-3.71-7.49v-.14a10.16,10.16,0,0,1,3.85-8.26,14.17,14.17,0,0,1,9.31-3,24.24,24.24,0,0,1,13.58,4.2l-3.36,6q-5.81-3.49-10.43-3.5c-3.45,0-5.18,1.22-5.18,3.64v.14q0,1.76,2.52,3.15a16.45,16.45,0,0,0,2.14.84l3.67,1.26q11.48,3.57,11.48,10.78v.14a10.52,10.52,0,0,1-4,8.75q-3.7,2.88-9.73,2.87A24.64,24.64,0,0,1,383.17,178.43Z" transform="translate(-29.06 -48.16)"/><path class="cls-1" d="M424.73,178.78a18.51,18.51,0,0,1-5.51-13.86v-.14a19.4,19.4,0,0,1,5-13.58,16.94,16.94,0,0,1,13.05-5.67q8.42,0,13.32,5.95,4.42,5.46,4.42,13.93c0,.24,0,.55,0,1s-.06.87-.11,1.43H427.76a11.51,11.51,0,0,0,3.64,6.93,10.38,10.38,0,0,0,7,2.45,14,14,0,0,0,10-4.41l5,4.41a18.68,18.68,0,0,1-15.12,6.93A18.36,18.36,0,0,1,424.73,178.78Zm21.86-16.59a11.62,11.62,0,0,0-2.79-6.93,8.4,8.4,0,0,0-6.55-2.8,8.6,8.6,0,0,0-6.42,2.73,11.65,11.65,0,0,0-3.14,7Z" transform="translate(-29.06 -48.16)"/><path class="cls-1" d="M460.52,178.43l3.78-5.74q6.22,4.56,12.11,4.55t5.74-4v-.14q0-1.89-2.52-3.15a14.88,14.88,0,0,0-2.06-.84c-1-.32-2.19-.72-3.68-1.19a24.1,24.1,0,0,1-7.84-3.36,8.79,8.79,0,0,1-3.71-7.49v-.14a10.16,10.16,0,0,1,3.85-8.26,14.17,14.17,0,0,1,9.31-3,24.24,24.24,0,0,1,13.58,4.2l-3.36,6q-5.81-3.49-10.43-3.5c-3.45,0-5.18,1.22-5.18,3.64v.14q0,1.76,2.52,3.15a16.79,16.79,0,0,0,2.13.84l3.68,1.26q11.47,3.57,11.48,10.78v.14a10.52,10.52,0,0,1-4,8.75Q482.23,184,476.2,184A24.64,24.64,0,0,1,460.52,178.43Z" transform="translate(-29.06 -48.16)"/></g><g id="Vinyl"><path d="M100.1,50.33a71,71,0,1,0,71,71A71,71,0,0,0,100.1,50.33Zm0,77.42a6.39,6.39,0,1,1,6.39-6.38A6.39,6.39,0,0,1,100.1,127.75Z" transform="translate(-29.06 -48.16)"/><path class="cls-2" d="M100.1,51.66a69.71,69.71,0,1,0,69.71,69.71A69.71,69.71,0,0,0,100.1,51.66Zm0,81.27a11.57,11.57,0,1,1,11.57-11.56A11.57,11.57,0,0,1,100.1,132.93Z" transform="translate(-29.06 -48.16)"/><path d="M100.1,187.2A65.47,65.47,0,0,1,63.29,176a66,66,0,0,1-23.85-29A65.84,65.84,0,0,1,53.55,74.81,65.89,65.89,0,0,1,74.47,60.7a66.11,66.11,0,0,1,51.26,0,66.09,66.09,0,0,1,29,23.86,65.78,65.78,0,0,1-8,83.36,66.38,66.38,0,0,1-9.74,8A65.47,65.47,0,0,1,100.1,187.2Zm0-131.47a65.64,65.64,0,1,0,65.63,65.64A65.71,65.71,0,0,0,100.1,55.73Z" transform="translate(-29.06 -48.16)"/><path d="M100.1,179.86a58.23,58.23,0,0,1-32.7-10,59.22,59.22,0,0,1-8.66-7.14,58.45,58.45,0,0,1,0-82.72A58.49,58.49,0,0,1,77.33,67.47a58.66,58.66,0,0,1,45.54,0A58.73,58.73,0,0,1,154,98.6a58.51,58.51,0,0,1-12.54,64.13,59.22,59.22,0,0,1-8.66,7.14,58.23,58.23,0,0,1-32.7,10Zm0-116.78a58.29,58.29,0,1,0,58.29,58.29A58.36,58.36,0,0,0,100.1,63.08Z" transform="translate(-29.06 -48.16)"/><path d="M100.1,173.34a51.88,51.88,0,1,1,20.23-4.09A51.65,51.65,0,0,1,100.1,173.34Zm0-103.74a51.77,51.77,0,1,0,51.77,51.77A51.83,51.83,0,0,0,100.1,69.6Z" transform="translate(-29.06 -48.16)"/><path d="M100.1,166.73a45.22,45.22,0,1,1,17.66-3.57A45.06,45.06,0,0,1,100.1,166.73Zm0-90.52a45.16,45.16,0,1,0,45.16,45.16A45.21,45.21,0,0,0,100.1,76.21Z" transform="translate(-29.06 -48.16)"/><path d="M100.1,159.54a38,38,0,1,1,14.86-3A38,38,0,0,1,100.1,159.54Zm0-76.14a38,38,0,1,0,38,38A38,38,0,0,0,100.1,83.4Z" transform="translate(-29.06 -48.16)"/><path d="M100.1,152.46A31,31,0,1,1,112.2,150,30.88,30.88,0,0,1,100.1,152.46Zm0-62A30.89,30.89,0,1,0,131,121.37,30.92,30.92,0,0,0,100.1,90.48Z" transform="translate(-29.06 -48.16)"/><path d="M100.1,98.52a22.85,22.85,0,1,0,22.84,22.85A22.84,22.84,0,0,0,100.1,98.52Zm0,43.87a21,21,0,1,1,21-21A21,21,0,0,1,100.1,142.39Z" transform="translate(-29.06 -48.16)"/><path class="cls-3" d="M100.1,99.94a21.43,21.43,0,1,0,21.42,21.43A21.42,21.42,0,0,0,100.1,99.94Zm0,27.3a5.87,5.87,0,1,1,5.87-5.87A5.87,5.87,0,0,1,100.1,127.24Z" transform="translate(-29.06 -48.16)"/></g></svg>