<svg id="Label_Releases" data-name="Label Releases" xmlns="http://www.w3.org/2000/svg" xmlns:xlink="http://www.w3.org/1999/xlink" viewBox="0 0 511.13 166.43"><defs><style>.cls-1{font-size:64px;}.cls-1,.cls-4{font-family:iCielGotham-Medium, iCiel Gotham;font-weight:500;}.cls-2{letter-spacing:-0.01em;}.cls-3{letter-spacing:-0.02em;}.cls-4{font-size:70px;fill:#fff;}.cls-5{letter-spacing:-0.01em;}.cls-6{letter-spacing:-0.02em;}.cls-7{fill:url(#linear-gradient);}.cls-8{fill:url(#linear-gradient-2);}</style><linearGradient id="linear-gradient" x1="30.39" y1="121.37" x2="169.81" y2="121.37" gradientUnits="userSpaceOnUse"><stop offset="0"/><stop offset="0.32" stop-color="#454243"/><stop offset="0.37" stop-color="#474445"/><stop offset="0.41" stop-color="#4f4d4e"/><stop offset="0.43" stop-color="#5d5b5b"/><stop offset="0.46" stop-color="#716e6f"/><stop offset="0.48" stop-color="#8a8889"/><stop offset="0.5" stop-color="#a8a7a7"/><stop offset="0.5" stop-color="#b7b6b6"/><stop offset="0.52" stop-color="#a6a5a5"/><stop offset="0.54" stop-color="#828080"/><stop offset="0.57" stop-color="#646162"/><stop offset="0.6" stop-color="#4c494a"/><stop offset="0.63" stop-color="#3c3839"/><stop offset="0.66" stop-color="#322e2f"/><stop offset="0.7" stop-color="#2f2b2c"/><stop offset="0.83" stop-color="#2c2829"/><stop offset="0.93" stop-color="#221f20"/><stop offset="1" stop-color="#161415"/></linearGradient><linearGradient id="linear-gradient-2" x1="78.68" y1="121.37" x2="121.52" y2="121.37" gradientUnits="userSpaceOnUse"><stop offset="0" stop-color="#cc9e0a"/><stop offset="0.2" stop-color="#cea00a"/><stop offset="0.31" stop-color="#d7a709"/><stop offset="0.4" stop-color="#e5b408"/><stop offset="0.48" stop-color="#f8c506"/><stop offset="0.5" stop-color="#ffcb05"/><stop offset="0.6" stop-color="#eab807"/><stop offset="0.72" stop-color="#d9aa09"/><stop offset="0.84" stop-color="#cfa10a"/><stop offset="1" stop-color="#cc9e0a"/></linearGradient></defs><g id="Text"><text id="Black_Best_Rated" data-name="Black Best Rated" class="cls-1" transform="translate(176.24 59.21)">Label <tspan class="cls-2" x="0" y="76.8">R</tspan><tspan x="45.63" y="76.8">e</tspan><tspan class="cls-3" x="84.29" y="76.8">l</tspan><tspan x="100.99" y="76.8">eases</tspan></text><text class="cls-4" transform="translate(157.97 59.5)">Label <tspan class="cls-5" x="0" y="84">R</tspan><tspan x="49.91" y="84">e</tspan><tspan class="cls-6" x="92.19" y="84">l</tspan><tspan x="110.46" y="84">eases</tspan></text></g><g id="Vinyl"><path d="M100.1,50.33a71,71,0,1,0,71,71A71,71,0,0,0,100.1,50.33Zm0,77.42a6.39,6.39,0,1,1,6.39-6.38A6.39,6.39,0,0,1,100.1,127.75Z" transform="translate(-29.06 -39.76)"/><path class="cls-7" d="M100.1,51.66a69.71,69.71,0,1,0,69.71,69.71A69.71,69.71,0,0,0,100.1,51.66Zm0,81.27a11.57,11.57,0,1,1,11.57-11.56A11.57,11.57,0,0,1,100.1,132.93Z" transform="translate(-29.06 -39.76)"/><path d="M100.1,187.2A65.47,65.47,0,0,1,63.29,176a66,66,0,0,1-23.85-29A65.84,65.84,0,0,1,53.55,74.81,65.89,65.89,0,0,1,74.47,60.7a66.11,66.11,0,0,1,51.26,0,66.09,66.09,0,0,1,29,23.86,65.78,65.78,0,0,1-8,83.36,66.38,66.38,0,0,1-9.74,8A65.47,65.47,0,0,1,100.1,187.2Zm0-131.47a65.64,65.64,0,1,0,65.63,65.64A65.71,65.71,0,0,0,100.1,55.73Z" transform="translate(-29.06 -39.76)"/><path d="M100.1,179.86a58.23,58.23,0,0,1-32.7-10,59.22,59.22,0,0,1-8.66-7.14,58.45,58.45,0,0,1,0-82.72A58.49,58.49,0,0,1,77.33,67.47a58.66,58.66,0,0,1,45.54,0A58.73,58.73,0,0,1,154,98.6a58.51,58.51,0,0,1-12.54,64.13,59.22,59.22,0,0,1-8.66,7.14,58.23,58.23,0,0,1-32.7,10Zm0-116.78a58.29,58.29,0,1,0,58.29,58.29A58.36,58.36,0,0,0,100.1,63.08Z" transform="translate(-29.06 -39.76)"/><path d="M100.1,173.34a51.88,51.88,0,1,1,20.23-4.09A51.65,51.65,0,0,1,100.1,173.34Zm0-103.74a51.77,51.77,0,1,0,51.77,51.77A51.83,51.83,0,0,0,100.1,69.6Z" transform="translate(-29.06 -39.76)"/><path d="M100.1,166.73a45.22,45.22,0,1,1,17.66-3.57A45.06,45.06,0,0,1,100.1,166.73Zm0-90.52a45.16,45.16,0,1,0,45.16,45.16A45.21,45.21,0,0,0,100.1,76.21Z" transform="translate(-29.06 -39.76)"/><path d="M100.1,159.54a38,38,0,1,1,14.86-3A38,38,0,0,1,100.1,159.54Zm0-76.14a38,38,0,1,0,38,38A38,38,0,0,0,100.1,83.4Z" transform="translate(-29.06 -39.76)"/><path d="M100.1,152.46A31,31,0,1,1,112.2,150,30.88,30.88,0,0,1,100.1,152.46Zm0-62A30.89,30.89,0,1,0,131,121.37,30.92,30.92,0,0,0,100.1,90.48Z" transform="translate(-29.06 -39.76)"/><path d="M100.1,98.52a22.85,22.85,0,1,0,22.84,22.85A22.84,22.84,0,0,0,100.1,98.52Zm0,43.87a21,21,0,1,1,21-21A21,21,0,0,1,100.1,142.39Z" transform="translate(-29.06 -39.76)"/><path class="cls-8" d="M100.1,99.94a21.43,21.43,0,1,0,21.42,21.43A21.42,21.42,0,0,0,100.1,99.94Zm0,27.3a5.87,5.87,0,1,1,5.87-5.87A5.87,5.87,0,0,1,100.1,127.24Z" transform="translate(-29.06 -39.76)"/></g></svg>